<?xml version="1.0" standalone="no"?>
<!DOCTYPE svg PUBLIC "-//W3C//DTD SVG 20010904//EN"
 "http://www.w3.org/TR/2001/REC-SVG-20010904/DTD/svg10.dtd">
<svg version="1.0" xmlns="http://www.w3.org/2000/svg"
 width="512.000000pt" height="512.000000pt" viewBox="0 0 512.000000 512.000000"
 preserveAspectRatio="xMidYMid meet">
<metadata>
Created by potrace 1.14, written by Peter Selinger 2001-2017
</metadata>
<g transform="translate(0.000000,512.000000) scale(0.100000,-0.100000)"
fill="#000000" stroke="none">
<path d="M86 4228 c-26 -73 -56 -154 -67 -180 -15 -37 -19 -71 -19 -162 0
-118 6 -143 75 -301 7 -16 25 -59 39 -95 14 -36 59 -148 101 -250 41 -102 112
-276 157 -388 l81 -203 268 -212 c147 -117 268 -215 268 -218 1 -3 -23 -12
-52 -19 -39 -9 -57 -19 -69 -39 -9 -14 -52 -84 -97 -156 l-81 -130 0 -197 0
-197 76 -133 c42 -73 83 -141 92 -150 8 -10 11 -18 7 -18 -4 0 -1 -8 7 -17 8
-10 25 -36 38 -58 12 -22 30 -53 40 -70 32 -56 192 -330 262 -447 38 -65 73
-118 77 -118 4 0 47 11 96 25 142 40 165 46 167 45 14 -3 132 48 208 90 133
73 181 100 291 159 l96 51 142 537 c78 296 144 549 147 563 3 14 12 49 20 78
l16 53 88 -2 c98 -1 89 5 104 -79 2 -14 14 -72 26 -130 12 -58 23 -114 25
-125 2 -17 72 -373 89 -457 3 -16 8 -40 11 -55 3 -16 8 -39 10 -53 3 -14 7
-34 9 -45 40 -201 57 -280 64 -286 4 -3 32 -20 62 -36 30 -17 135 -76 232
-131 180 -103 201 -111 504 -205 l111 -34 65 96 c35 53 136 202 223 331 88
129 199 294 247 365 l88 130 0 261 0 261 -56 64 c-133 150 -141 157 -185 169
-74 19 -73 18 -32 53 21 17 54 46 73 63 102 91 152 130 326 253 l189 134 95
286 c52 157 95 288 95 291 1 3 4 12 8 20 3 8 15 47 27 85 12 39 42 129 66 200
24 72 53 157 64 190 15 46 20 86 20 170 0 99 -3 114 -26 154 -14 25 -41 74
-61 110 -20 37 -46 84 -59 106 -13 23 -34 61 -47 85 l-24 45 -467 3 -468 2
-56 -47 c-31 -27 -62 -52 -68 -58 -6 -5 -148 -126 -316 -268 l-306 -257 -139
-213 c-219 -332 -285 -434 -356 -552 l-67 -111 -100 1 -100 1 -73 119 c-158
259 -490 756 -521 777 -17 12 -33 25 -36 28 -3 4 -32 26 -65 51 -33 24 -62 46
-65 49 -3 3 -21 17 -40 30 -19 13 -37 27 -40 30 -3 3 -23 19 -45 35 -22 17
-42 32 -45 35 -3 3 -57 44 -120 92 -63 47 -166 125 -227 172 l-113 86 -468 0
-468 0 -48 -132z"/>
</g>
</svg>
